<mxfile host="app.diagrams.net" modified="2024-04-22T13:29:37.480Z" agent="Mozilla/5.0 (Windows NT 10.0; Win64; x64) AppleWebKit/537.36 (KHTML, like Gecko) Chrome/124.0.0.0 Safari/537.36 Edg/124.0.0.0" etag="U4xOoLOszW0VSszPm7Pt" version="24.2.7" type="device">
  <diagram name="Page-1" id="dLMWYPuGLznFX2xjgWWH">
    <mxGraphModel dx="-2398" dy="-523" grid="1" gridSize="10" guides="1" tooltips="1" connect="1" arrows="1" fold="1" page="1" pageScale="1" pageWidth="850" pageHeight="1100" math="0" shadow="0">
      <root>
        <mxCell id="0" />
        <mxCell id="1" parent="0" />
        <mxCell id="OjjuWikgPptvA0j9m3rI-25" value="" style="endArrow=none;dashed=1;html=1;dashPattern=1 3;strokeWidth=2;rounded=0;exitX=1;exitY=1;exitDx=0;exitDy=0;fillColor=#f5f5f5;strokeColor=#B3B3B3;movable=1;resizable=1;rotatable=1;deletable=1;editable=1;locked=0;connectable=1;" parent="1" edge="1">
          <mxGeometry width="50" height="50" relative="1" as="geometry">
            <mxPoint x="3611" y="2250" as="sourcePoint" />
            <mxPoint x="4490.915" y="2250" as="targetPoint" />
          </mxGeometry>
        </mxCell>
        <mxCell id="F0TkgjP5yhH61yWifVZr-1" value="" style="endArrow=none;dashed=1;html=1;dashPattern=1 3;strokeWidth=2;rounded=0;exitX=1;exitY=1;exitDx=0;exitDy=0;fillColor=#f5f5f5;strokeColor=#B3B3B3;movable=1;resizable=1;rotatable=1;deletable=1;editable=1;locked=0;connectable=1;" parent="1" edge="1">
          <mxGeometry width="50" height="50" relative="1" as="geometry">
            <mxPoint x="3612" y="2290" as="sourcePoint" />
            <mxPoint x="4491.915" y="2290" as="targetPoint" />
          </mxGeometry>
        </mxCell>
        <mxCell id="OjjuWikgPptvA0j9m3rI-36" value="" style="endArrow=none;dashed=1;html=1;dashPattern=1 3;strokeWidth=2;rounded=0;exitX=1;exitY=0;exitDx=0;exitDy=0;fillColor=#f5f5f5;strokeColor=#B3B3B3;movable=1;resizable=1;rotatable=1;deletable=1;editable=1;locked=0;connectable=1;" parent="1" edge="1">
          <mxGeometry width="50" height="50" relative="1" as="geometry">
            <mxPoint x="3611" y="2171.33" as="sourcePoint" />
            <mxPoint x="4490.915" y="2171.33" as="targetPoint" />
          </mxGeometry>
        </mxCell>
        <mxCell id="OjjuWikgPptvA0j9m3rI-24" value="" style="endArrow=none;dashed=1;html=1;dashPattern=1 3;strokeWidth=2;rounded=0;exitX=1;exitY=1;exitDx=0;exitDy=0;fillColor=#f5f5f5;strokeColor=#B3B3B3;movable=1;resizable=1;rotatable=1;deletable=1;editable=1;locked=0;connectable=1;" parent="1" edge="1">
          <mxGeometry width="50" height="50" relative="1" as="geometry">
            <mxPoint x="3611" y="2409.23" as="sourcePoint" />
            <mxPoint x="4491" y="2409.23" as="targetPoint" />
          </mxGeometry>
        </mxCell>
        <mxCell id="OjjuWikgPptvA0j9m3rI-26" value="&lt;font style=&quot;font-size: 20px;&quot;&gt;:FMU 1&lt;/font&gt;" style="shape=umlLifeline;perimeter=lifelinePerimeter;whiteSpace=wrap;html=1;container=1;dropTarget=0;collapsible=0;recursiveResize=0;outlineConnect=0;portConstraint=eastwest;newEdgeStyle={&quot;curved&quot;:0,&quot;rounded&quot;:0};size=80;" parent="1" vertex="1">
          <mxGeometry x="3649.17" y="1970" width="240.83" height="480" as="geometry" />
        </mxCell>
        <mxCell id="OjjuWikgPptvA0j9m3rI-27" value="&lt;font style=&quot;font-size: 20px;&quot;&gt;:FMU 2&lt;/font&gt;" style="shape=umlLifeline;perimeter=lifelinePerimeter;whiteSpace=wrap;html=1;container=1;dropTarget=0;collapsible=0;recursiveResize=0;outlineConnect=0;portConstraint=eastwest;newEdgeStyle={&quot;curved&quot;:0,&quot;rounded&quot;:0};size=80;" parent="1" vertex="1">
          <mxGeometry x="4370" y="1970" width="240.83" height="480" as="geometry" />
        </mxCell>
        <mxCell id="OjjuWikgPptvA0j9m3rI-31" value="&lt;font style=&quot;font-size: 18px;&quot;&gt;Transmit(Slot ID = 10)&lt;/font&gt;" style="html=1;verticalAlign=bottom;endArrow=block;curved=0;rounded=0;" parent="1" source="OjjuWikgPptvA0j9m3rI-26" edge="1">
          <mxGeometry x="0.0006" width="80" relative="1" as="geometry">
            <mxPoint x="3773.344259259259" y="2171" as="sourcePoint" />
            <mxPoint x="4124" y="2171" as="targetPoint" />
            <Array as="points" />
            <mxPoint as="offset" />
          </mxGeometry>
        </mxCell>
        <mxCell id="OjjuWikgPptvA0j9m3rI-32" value="&lt;font style=&quot;font-size: 18px;&quot;&gt;Transmit(Slot ID = 12)&lt;/font&gt;" style="html=1;verticalAlign=bottom;endArrow=block;curved=0;rounded=0;" parent="1" edge="1">
          <mxGeometry x="-0.0016" y="27" width="80" relative="1" as="geometry">
            <mxPoint x="4489.915" y="2290" as="sourcePoint" />
            <mxPoint x="4135.59" y="2290" as="targetPoint" />
            <Array as="points" />
            <mxPoint as="offset" />
          </mxGeometry>
        </mxCell>
        <mxCell id="OjjuWikgPptvA0j9m3rI-34" value="Cycle" style="rounded=0;whiteSpace=wrap;html=1;fillColor=#e1d5e7;strokeColor=#9673a6;horizontal=0;" parent="1" vertex="1">
          <mxGeometry x="3473" y="2090" width="40" height="320" as="geometry" />
        </mxCell>
        <mxCell id="OjjuWikgPptvA0j9m3rI-35" value="Dynamic segment" style="rounded=0;whiteSpace=wrap;html=1;fillColor=#fff2cc;strokeColor=#d6b656;horizontal=0;" parent="1" vertex="1">
          <mxGeometry x="3513" y="2090" width="40" height="320" as="geometry" />
        </mxCell>
        <mxCell id="OjjuWikgPptvA0j9m3rI-37" value="" style="ellipse;whiteSpace=wrap;html=1;align=center;aspect=fixed;fillColor=none;strokeColor=none;resizable=0;perimeter=centerPerimeter;rotatable=0;allowArrows=0;points=[];outlineConnect=1;" parent="1" vertex="1">
          <mxGeometry x="4190" y="2290" width="10" height="10" as="geometry" />
        </mxCell>
        <mxCell id="OjjuWikgPptvA0j9m3rI-38" value="8" style="rounded=0;whiteSpace=wrap;html=1;fillColor=#fff2cc;strokeColor=#d6b656;horizontal=0;" parent="1" vertex="1">
          <mxGeometry x="3553" y="2090" width="40" height="40" as="geometry" />
        </mxCell>
        <mxCell id="OjjuWikgPptvA0j9m3rI-39" value="9" style="rounded=0;whiteSpace=wrap;html=1;fillColor=#fff2cc;strokeColor=#d6b656;horizontal=0;" parent="1" vertex="1">
          <mxGeometry x="3553" y="2130" width="40" height="40" as="geometry" />
        </mxCell>
        <mxCell id="OjjuWikgPptvA0j9m3rI-40" value="10" style="rounded=0;whiteSpace=wrap;html=1;fillColor=#fff2cc;strokeColor=#d6b656;horizontal=0;" parent="1" vertex="1">
          <mxGeometry x="3553" y="2170" width="40" height="80" as="geometry" />
        </mxCell>
        <mxCell id="OjjuWikgPptvA0j9m3rI-41" value="11" style="rounded=0;whiteSpace=wrap;html=1;fillColor=#fff2cc;strokeColor=#d6b656;horizontal=0;" parent="1" vertex="1">
          <mxGeometry x="3553" y="2250" width="40" height="40" as="geometry" />
        </mxCell>
        <mxCell id="OjjuWikgPptvA0j9m3rI-42" value="12" style="rounded=0;whiteSpace=wrap;html=1;fillColor=#fff2cc;strokeColor=#d6b656;horizontal=0;" parent="1" vertex="1">
          <mxGeometry x="3553" y="2290" width="40" height="120" as="geometry" />
        </mxCell>
        <mxCell id="OjjuWikgPptvA0j9m3rI-45" value="&lt;font style=&quot;font-size: 18px;&quot;&gt;Transmit(Slot ID = 10)&lt;/font&gt;" style="html=1;verticalAlign=bottom;endArrow=block;curved=0;rounded=0;" parent="1" source="OjjuWikgPptvA0j9m3rI-29" edge="1">
          <mxGeometry x="0.0006" width="80" relative="1" as="geometry">
            <mxPoint x="4129.735769230769" y="2250" as="sourcePoint" />
            <mxPoint x="4489.915" y="2250" as="targetPoint" />
            <Array as="points" />
            <mxPoint as="offset" />
          </mxGeometry>
        </mxCell>
        <mxCell id="OjjuWikgPptvA0j9m3rI-46" value="&lt;font style=&quot;font-size: 18px;&quot;&gt;Transmit(Slot ID = 12)&lt;/font&gt;" style="html=1;verticalAlign=bottom;endArrow=block;curved=0;rounded=0;" parent="1" edge="1">
          <mxGeometry width="80" relative="1" as="geometry">
            <mxPoint x="4129.859838709677" y="2409" as="sourcePoint" />
            <mxPoint x="3769.439838709677" y="2409" as="targetPoint" />
            <Array as="points" />
          </mxGeometry>
        </mxCell>
        <mxCell id="OjjuWikgPptvA0j9m3rI-28" value="&lt;font style=&quot;font-size: 20px;&quot;&gt;:Bus Simulation&lt;/font&gt;" style="shape=umlLifeline;perimeter=lifelinePerimeter;whiteSpace=wrap;html=1;container=1;dropTarget=0;collapsible=0;recursiveResize=0;outlineConnect=0;portConstraint=eastwest;newEdgeStyle={&quot;curved&quot;:0,&quot;rounded&quot;:0};size=80;" parent="1" vertex="1">
          <mxGeometry x="4009.59" y="1970" width="240.83" height="480" as="geometry" />
        </mxCell>
        <mxCell id="OjjuWikgPptvA0j9m3rI-29" value="" style="html=1;points=[[0,0,0,0,5],[0,1,0,0,-5],[1,0,0,0,5],[1,1,0,0,-5]];perimeter=orthogonalPerimeter;outlineConnect=0;targetShapes=umlLifeline;portConstraint=eastwest;newEdgeStyle={&quot;curved&quot;:0,&quot;rounded&quot;:0};fillColor=default;" parent="OjjuWikgPptvA0j9m3rI-28" vertex="1">
          <mxGeometry x="115.41" y="120" width="10" height="340" as="geometry" />
        </mxCell>
        <mxCell id="vxR3i-lwAQehYLOSkCzb-3" value="1" style="rounded=0;whiteSpace=wrap;html=1;fillColor=#f8cecc;strokeColor=#b85450;horizontal=0;" parent="1" vertex="1">
          <mxGeometry x="3593" y="2090" width="40" height="40" as="geometry" />
        </mxCell>
        <mxCell id="vxR3i-lwAQehYLOSkCzb-4" value="2" style="rounded=0;whiteSpace=wrap;html=1;fillColor=#f8cecc;strokeColor=#b85450;horizontal=0;" parent="1" vertex="1">
          <mxGeometry x="3593" y="2130" width="40" height="40" as="geometry" />
        </mxCell>
        <mxCell id="vxR3i-lwAQehYLOSkCzb-5" value="3" style="rounded=0;whiteSpace=wrap;html=1;fillColor=#f8cecc;strokeColor=#b85450;horizontal=0;" parent="1" vertex="1">
          <mxGeometry x="3593" y="2170" width="40" height="40" as="geometry" />
        </mxCell>
        <mxCell id="vxR3i-lwAQehYLOSkCzb-6" value="4" style="rounded=0;whiteSpace=wrap;html=1;fillColor=#f8cecc;strokeColor=#b85450;horizontal=0;" parent="1" vertex="1">
          <mxGeometry x="3593" y="2210" width="40" height="40" as="geometry" />
        </mxCell>
        <mxCell id="vxR3i-lwAQehYLOSkCzb-9" value="5" style="rounded=0;whiteSpace=wrap;html=1;fillColor=#f8cecc;strokeColor=#b85450;horizontal=0;" parent="1" vertex="1">
          <mxGeometry x="3593" y="2250" width="40" height="40" as="geometry" />
        </mxCell>
        <mxCell id="vxR3i-lwAQehYLOSkCzb-10" value="6" style="rounded=0;whiteSpace=wrap;html=1;fillColor=#f8cecc;strokeColor=#b85450;horizontal=0;" parent="1" vertex="1">
          <mxGeometry x="3593" y="2290" width="40" height="40" as="geometry" />
        </mxCell>
        <mxCell id="vxR3i-lwAQehYLOSkCzb-11" value="7" style="rounded=0;whiteSpace=wrap;html=1;fillColor=#f8cecc;strokeColor=#b85450;horizontal=0;" parent="1" vertex="1">
          <mxGeometry x="3593" y="2330" width="40" height="40" as="geometry" />
        </mxCell>
        <mxCell id="vxR3i-lwAQehYLOSkCzb-12" value="8" style="rounded=0;whiteSpace=wrap;html=1;fillColor=#f8cecc;strokeColor=#b85450;horizontal=0;" parent="1" vertex="1">
          <mxGeometry x="3593" y="2370" width="40" height="40" as="geometry" />
        </mxCell>
        <mxCell id="eMK7AIJrsF23KPxyv7eX-1" value="Minislot" style="text;html=1;align=center;verticalAlign=middle;whiteSpace=wrap;rounded=0;rotation=-90;direction=south;fontSize=13;" parent="1" vertex="1">
          <mxGeometry x="3587" y="2041.25" width="52" height="35.5" as="geometry" />
        </mxCell>
        <mxCell id="eMK7AIJrsF23KPxyv7eX-3" value="Slot Counter" style="text;html=1;align=center;verticalAlign=middle;whiteSpace=wrap;rounded=0;rotation=-90;direction=south;fontSize=13;" parent="1" vertex="1">
          <mxGeometry x="3532" y="2027.25" width="82" height="35.5" as="geometry" />
        </mxCell>
        <mxCell id="H8IP0Qk-a3XTN0fJOlvx-1" value="&lt;font style=&quot;font-size: 18px;&quot;&gt;Confirm(Slot ID = 10)&lt;/font&gt;" style="html=1;verticalAlign=bottom;endArrow=none;curved=0;rounded=0;startArrow=block;startFill=1;endFill=0;" edge="1" parent="1">
          <mxGeometry x="0.0006" width="80" relative="1" as="geometry">
            <mxPoint x="3770" y="2250" as="sourcePoint" />
            <mxPoint x="4125" y="2250" as="targetPoint" />
            <Array as="points" />
            <mxPoint as="offset" />
          </mxGeometry>
        </mxCell>
        <mxCell id="H8IP0Qk-a3XTN0fJOlvx-2" value="&lt;font style=&quot;font-size: 18px;&quot;&gt;Confirm(Slot ID = 12)&lt;/font&gt;" style="html=1;verticalAlign=bottom;endArrow=block;curved=0;rounded=0;" edge="1" parent="1">
          <mxGeometry x="-0.0012" width="80" relative="1" as="geometry">
            <mxPoint x="4135" y="2409" as="sourcePoint" />
            <mxPoint x="4489.915" y="2409" as="targetPoint" />
            <Array as="points" />
            <mxPoint as="offset" />
          </mxGeometry>
        </mxCell>
      </root>
    </mxGraphModel>
  </diagram>
</mxfile>
